HIERARCHY
ROOT Hips
{
	OFFSET 0.000000 0.000000 0.000000 
	CHANNELS 6 Xposition Yposition Zposition Zrotation Yrotation Xrotation
	JOINT LeftUpLeg
	{
		OFFSET 1.363060 -1.794630 0.839290 
		CHANNELS 3 Zrotation Yrotation Xrotation
		JOINT LeftLeg
		{
			OFFSET 2.448110 -6.726130 0.000000 
			CHANNELS 3 Zrotation Yrotation Xrotation
			JOINT LeftFoot
			{
				OFFSET 2.562200 -7.039590 0.000000 
				CHANNELS 3 Zrotation Yrotation Xrotation
				JOINT LeftToeBase
				{
					OFFSET 0.157640 -0.433110 2.322550 
					CHANNELS 3 Zrotation Yrotation Xrotation
					End Site
					{
						OFFSET 0.000000 0.000000 0.000000 
					}
				}
			}
		}
	}
	JOINT RightUpLeg
	{
		OFFSET -1.305520 -1.794630 0.839290 
		CHANNELS 3 Zrotation Yrotation Xrotation
		JOINT RightLeg
		{
			OFFSET -2.542530 -6.985550 0.000000 
			CHANNELS 3 Zrotation Yrotation Xrotation
			JOINT RightFoot
			{
				OFFSET -2.568260 -7.056230 0.000000 
				CHANNELS 3 Zrotation Yrotation Xrotation
				JOINT RightToeBase
				{
					OFFSET -0.164730 -0.452590 2.363150 
					CHANNELS 3 Zrotation Yrotation Xrotation
					End Site
					{
						OFFSET 0.000000 0.000000 0.000000 
					}
				}
			}
		}
	}
	JOINT Spine
	{
		OFFSET 0.028270 2.035590 -0.193380 
		CHANNELS 3 Zrotation Yrotation Xrotation
		JOINT Spine1
		{
			OFFSET 0.056720 2.048850 -0.042750 
			CHANNELS 3 Zrotation Yrotation Xrotation
			JOINT Neck1
			{
				OFFSET -0.054170 1.746240 0.172020 
				CHANNELS 3 Zrotation Yrotation Xrotation
				JOINT Head
				{
					OFFSET 0.104070 1.761360 -0.123970 
					CHANNELS 3 Zrotation Yrotation Xrotation
					End Site
					{
						OFFSET 0.000000 0.000000 0.000000 
					}
				}
			}
			JOINT LeftArm
			{
				OFFSET 3.362410 1.200890 -0.311210 
				CHANNELS 3 Zrotation Yrotation Xrotation
				JOINT LeftForeArm
				{
					OFFSET 4.983000 -0.000000 -0.000000 
					CHANNELS 3 Zrotation Yrotation Xrotation
					JOINT LeftHand
					{
						OFFSET 3.483560 -0.000000 -0.000000 
						CHANNELS 3 Zrotation Yrotation Xrotation
						JOINT LeftHandIndex1
						{
							OFFSET 0.715260 -0.000000 -0.000000 
							CHANNELS 3 Zrotation Yrotation Xrotation
							End Site
							{
								OFFSET 0.000000 0.000000 0.000000 
							}
						}
					}
				}
			}
			JOINT RightArm
			{
				OFFSET -3.136600 1.374050 -0.404650 
				CHANNELS 3 Zrotation Yrotation Xrotation
				JOINT RightForeArm
				{
					OFFSET -5.241900 -0.000000 -0.000000 
					CHANNELS 3 Zrotation Yrotation Xrotation
					JOINT RightHand
					{
						OFFSET -3.444170 -0.000000 -0.000000 
						CHANNELS 3 Zrotation Yrotation Xrotation
						JOINT RightHandIndex1
						{
							OFFSET -0.622530 -0.000000 -0.000000 
							CHANNELS 3 Zrotation Yrotation Xrotation
							End Site
							{
								OFFSET 0.000000 0.000000 0.000000 
							}
						}
					}
				}
			}
		}
	}
}
MOTION
Frames: 18
Frame Time: 0.041667
-8.468270 17.649207 29.278848 163.489914 -78.793447 -173.013966 -8.324708 -6.915254 -1.872160 3.484985 13.082999 40.042469 1.903035 -5.420963 8.243208 2.292400 -9.450200 -27.214000 6.101729 -8.108714 -7.305968 -4.873972 -13.542889 42.930332 0.209550 -2.731999 -5.162371 -2.378500 9.613600 -27.734300 0.137032 -2.610215 -2.939427 1.686971 -1.181726 -7.233718 3.281761 -6.693824 1.303599 -2.422900 -3.715800 6.739500 59.909132 -26.225501 -93.413509 16.118980 -28.914274 -5.042172 -0.688277 -2.396086 -29.323194 -7.125000 0.000000 0.000000 -72.988829 41.229525 -78.733958 -30.283380 43.144256 -13.716545 -0.040967 1.666260 -44.793802 7.125000 0.000000 0.000000 
-8.504794 17.674336 29.202647 161.192034 -79.905682 -170.781583 -8.575139 -6.184901 -2.747268 3.676220 13.285287 40.909549 2.312978 -7.497605 8.437993 2.585200 -9.991200 -28.948300 6.053804 -8.926454 -7.168138 -4.972502 -13.561054 43.183697 0.115542 -2.211683 -4.754103 -2.079900 9.030500 -25.890800 0.106076 -2.757820 -2.882313 1.754144 -1.234245 -7.145498 3.380798 -6.710131 1.003297 -2.330100 -3.743900 6.543500 60.333008 -26.127480 -93.456361 17.018818 -29.961225 -5.506277 -0.614152 -2.385076 -30.892579 -7.125000 0.000000 0.000000 -69.811927 41.118276 -78.868146 -32.286557 44.388189 -15.108422 0.052039 1.614305 -45.472612 7.125000 0.000000 0.000000 
-8.547523 17.692038 29.136111 157.856316 -81.148569 -167.670517 -8.949809 -5.642539 -3.205187 3.667941 13.300985 41.133827 2.744812 -10.016936 9.650305 2.702000 -10.196300 -29.614800 5.899878 -10.064355 -7.249069 -5.232149 -13.725599 44.013704 0.047122 -1.800450 -4.303269 -1.859200 8.566400 -24.448000 0.180004 -3.229494 -2.899550 2.344689 -1.442085 -7.348212 3.309065 -6.660278 1.207490 -2.235100 -3.732700 6.556200 59.964304 -25.900923 -92.065849 18.049688 -31.084714 -6.050879 -0.537893 -2.387770 -31.459597 -7.125000 0.000000 0.000000 -69.409854 39.939589 -80.791906 -32.718368 44.637065 -15.474703 0.035128 1.626405 -49.076295 7.125000 0.000000 0.000000 
-8.597476 17.707299 29.073034 150.836197 -82.287555 -160.941083 -9.736167 -5.273125 -3.423298 3.586273 13.249642 41.190565 2.994484 -12.074759 11.973153 1.419500 -7.534700 -21.309500 5.388802 -10.899104 -7.317298 -5.552156 -13.968912 45.068140 0.011743 -1.529533 -3.656835 -1.718600 8.253600 -23.487000 0.078488 -3.542477 -2.824847 2.398356 -1.582856 -7.246356 3.053046 -7.105108 1.780436 -2.439200 -3.926400 6.709000 60.122228 -25.685504 -89.996869 19.709481 -32.817578 -6.917790 -0.471372 -2.304760 -32.625436 -7.125000 0.000000 0.000000 -68.718766 38.504792 -83.114312 -32.808659 44.644767 -15.653334 -0.040125 1.676201 -53.492494 7.125000 0.000000 0.000000 
-8.650074 17.717472 29.028270 143.671380 -83.143118 -153.850421 -10.547235 -4.940436 -3.656330 3.452683 13.127257 41.025749 3.157136 -13.843174 14.155698 0.224500 -3.049900 -8.417600 4.923650 -11.691042 -8.006020 -5.996064 -14.352908 46.594366 0.043836 -1.540285 -2.449585 -1.666500 8.133900 -23.121400 -0.008823 -3.749329 -2.782380 2.329540 -1.678669 -7.183169 2.864468 -7.592235 2.135737 -2.623200 -4.141300 6.713400 60.541110 -25.395968 -87.755597 21.155442 -34.250334 -7.670578 -0.424431 -2.188504 -33.052419 -7.125000 0.000000 0.000000 -68.343886 36.877862 -85.280369 -32.672856 44.516694 -15.661054 -0.117041 1.722801 -57.879642 7.125000 0.000000 0.000000 
-8.694838 17.734462 29.000496 139.397421 -83.883429 -149.473831 -11.051312 -4.631774 -3.912307 3.365898 13.003675 40.660375 3.006975 -12.566509 14.800256 0.013200 -0.742200 -2.039900 4.691692 -12.580205 -9.221388 -6.526327 -14.802971 48.424011 0.029378 -1.263005 -0.241972 -1.240700 7.062900 -19.901800 -0.038326 -3.921103 -2.785318 2.181864 -1.762368 -7.299380 2.802531 -8.143112 2.550758 -2.757600 -4.365900 6.747000 61.228982 -24.968213 -85.687636 22.152420 -35.183379 -8.150120 -0.404867 -2.023629 -32.764141 -7.125000 0.000000 0.000000 -68.381318 35.230135 -87.536838 -32.423713 44.331955 -15.569889 -0.177863 1.757293 -61.374159 7.125000 0.000000 0.000000 
-8.737262 17.702720 28.959903 146.263916 -84.408306 -155.952768 -10.503765 -3.319827 -4.299539 3.377227 12.923829 40.202280 2.722165 -10.108963 12.541779 0.422400 -4.171400 -11.559400 5.284123 -12.517826 -10.628497 -7.090416 -15.278253 50.520241 -0.096976 -0.369301 2.414876 -1.618300 8.021100 -22.778300 0.148277 -3.962658 -2.866149 2.409383 -1.786903 -7.504434 2.797531 -8.375845 3.089584 -2.774500 -4.435500 6.861000 61.500689 -24.214641 -82.195805 23.049940 -35.987512 -8.593004 -0.412035 -1.969375 -31.711728 -7.125000 0.000000 0.000000 -69.277627 33.884507 -90.107582 -32.165284 44.171562 -15.434278 -0.203984 1.772092 -64.047013 7.125000 0.000000 0.000000 
-8.780399 17.691936 28.931010 146.662306 -84.846024 -156.253705 -10.395477 -3.611357 -3.702878 3.221485 12.723486 39.461744 2.681101 -9.703687 11.419033 0.760100 -5.567700 -15.535200 5.031726 -12.506418 -11.936616 -7.677514 -15.758821 52.598401 -0.261957 0.571588 5.732106 -1.799700 8.435900 -24.046000 0.361834 -4.343050 -2.927469 3.310501 -1.964965 -7.827257 2.874548 -8.291195 3.405283 -2.636200 -4.386800 6.956600 61.349990 -22.857290 -78.390255 23.651739 -36.464432 -8.871287 -0.401730 -1.992189 -31.739837 -7.125000 0.000000 0.000000 -70.702229 32.631859 -92.391536 -32.190523 44.214532 -15.482100 -0.243311 1.793843 -65.654130 7.125000 0.000000 0.000000 
-8.830962 17.664264 28.904965 143.885989 -85.116494 -153.517201 -10.555611 -3.932279 -2.740094 3.022145 12.462965 38.589309 2.793369 -10.263573 10.134707 0.941600 -6.180300 -17.308500 4.379602 -12.200644 -13.029626 -8.290706 -16.258025 54.747628 -0.457581 1.551435 8.829944 -1.056100 6.534300 -18.342800 0.348067 -4.444365 -2.886114 3.399410 -2.016064 -7.930602 2.935141 -8.760971 3.735704 -2.763200 -4.557500 7.012800 62.370233 -21.838499 -75.907567 24.264598 -36.996301 -9.146541 -0.366633 -1.949401 -32.212639 -7.125000 0.000000 0.000000 -70.806470 30.924747 -93.251271 -32.320124 44.259325 -15.581891 -0.254328 1.810900 -65.807231 7.125000 0.000000 0.000000 
-8.884170 17.616346 28.870883 139.394667 -85.298884 -149.115899 -10.776511 -4.450364 -1.526889 2.757191 12.125605 37.446645 2.968369 -11.128881 8.800188 0.975200 -6.286700 -17.618500 3.557902 -11.771416 -13.914181 -8.831085 -16.691756 56.645062 -0.679997 2.877410 10.969084 -0.605200 4.979700 -13.850600 0.330766 -4.455168 -2.863898 3.601618 -2.021771 -8.096256 3.003296 -9.222658 4.316440 -2.799000 -4.727900 7.267800 63.272183 -20.812430 -73.679675 24.890101 -37.538138 -9.457843 -0.322256 -1.953392 -33.095058 -7.125000 0.000000 0.000000 -71.012468 29.037391 -93.394239 -32.406512 44.303500 -15.688582 -0.342500 1.824042 -65.791682 7.125000 0.000000 0.000000 
-8.932902 17.523562 28.829781 132.912820 -85.313893 -142.625721 -11.137753 -5.038661 -0.485083 2.517478 11.815895 36.413476 3.141322 -12.031617 7.779453 0.665300 -5.216500 -14.527000 2.341074 -12.179317 -15.120796 -9.317345 -17.075731 58.284087 -0.944168 5.242202 11.142283 -1.006600 6.384000 -17.902900 0.280944 -4.311100 -2.792657 3.770445 -1.954719 -8.018028 2.978889 -10.050311 4.758124 -2.944900 -5.084800 7.440900 64.564375 -19.974734 -72.836678 25.224156 -37.849410 -9.613769 -0.310623 -1.943119 -33.481152 -7.125000 0.000000 0.000000 -70.768906 26.952421 -92.382542 -33.023223 44.636362 -16.127677 -0.415332 1.874088 -65.617185 7.125000 0.000000 0.000000 
-8.987128 17.470150 28.780846 124.862426 -85.563019 -134.706739 -11.362236 -5.623676 0.595028 2.304851 11.541484 35.483934 3.314339 -12.987145 7.027754 0.390400 -4.012100 -11.110600 1.626832 -11.644991 -15.346967 -9.593183 -17.297814 59.114863 -0.931194 5.537999 8.882882 -0.810100 5.743800 -16.042900 -0.049278 -4.077078 -2.734471 2.343328 -1.817732 -8.280549 2.361725 -10.638951 4.618200 -3.596600 -5.354800 7.150400 67.221367 -19.953060 -73.802886 25.251339 -37.976425 -9.584942 -0.301149 -1.849622 -33.130986 -7.125000 0.000000 0.000000 -69.226939 24.431381 -91.271803 -30.569891 42.936417 -14.483991 -0.552087 1.867249 -57.830572 7.125000 0.000000 0.000000 
-9.045830 17.395373 28.720719 114.871424 -86.001770 -124.807875 -11.263523 -6.110423 1.303187 2.152657 11.365499 34.794018 3.454933 -13.646116 6.291619 0.302300 -3.534900 -9.771800 1.057388 -11.761800 -15.574805 -9.682537 -17.351490 59.129517 -0.659290 3.334244 5.313337 -0.524300 4.640600 -12.886300 0.212114 -4.953013 -2.880967 3.761432 -2.174590 -8.831588 2.240762 -9.863503 4.239362 -3.224400 -5.110000 6.934200 66.074236 -19.177983 -72.482758 24.954741 -37.643427 -9.401333 -0.339059 -1.939736 -32.726107 -7.125000 0.000000 0.000000 -70.969736 24.036494 -90.028520 -31.588067 43.543493 -14.989394 -0.499997 2.053897 -63.900013 7.125000 0.000000 0.000000 
-9.103413 17.329753 28.646960 104.613011 -85.813503 -114.445947 -11.558245 -6.176102 1.612980 2.038436 11.219019 34.211489 3.537565 -13.882575 5.285108 0.197200 -2.859400 -7.887500 0.305711 -11.058095 -15.554369 -9.463934 -17.234607 58.246156 -0.417130 1.489221 2.774740 -0.503000 4.546500 -12.619400 0.327545 -5.584110 -3.031882 4.829442 -2.392762 -9.281226 2.228075 -9.700621 4.245811 -2.975000 -5.092800 6.934200 65.351117 -18.482868 -71.800743 24.607472 -37.278685 -9.188069 -0.364890 -2.011209 -32.244537 -7.125000 0.000000 0.000000 -72.483344 23.556973 -90.342482 -30.685962 42.899874 -14.264979 -0.472316 2.079947 -64.049276 7.125000 0.000000 0.000000 
-9.166795 17.272984 28.558958 98.164992 -85.577775 -107.853845 -11.716917 -6.074164 1.856153 1.992329 11.147213 33.864308 3.626366 -14.044550 4.034312 0.153000 -2.520400 -6.946300 -0.097616 -9.473974 -15.044156 -9.092905 -17.026458 57.051287 -0.399117 1.183058 0.532795 -0.537000 4.695500 -13.042200 0.261992 -5.783008 -3.047564 4.849345 -2.455459 -9.290346 2.160970 -10.060921 4.075354 -3.020600 -5.286300 6.826400 65.583629 -18.022815 -72.157004 24.325556 -37.005459 -9.006432 -0.384009 -2.008457 -31.154417 -7.125000 0.000000 0.000000 -72.570717 22.942650 -90.489429 -30.368427 42.639796 -14.012703 -0.443331 2.091765 -63.952103 7.125000 0.000000 0.000000 
-9.235773 17.207567 28.461494 94.175285 -85.756797 -103.681082 -11.369676 -6.293777 2.262235 1.913062 11.050666 33.367903 3.711143 -13.947541 2.714707 0.153600 -2.525200 -6.959700 -0.050634 -8.422230 -14.443667 -8.728167 -16.796676 55.929926 -0.637480 2.323815 -1.313343 -1.287700 7.190600 -20.281200 0.185602 -5.774769 -3.050459 4.417558 -2.454834 -9.239499 2.086367 -10.644835 3.977856 -3.154100 -5.564700 6.760600 65.712708 -17.531467 -71.744712 24.063649 -36.703801 -8.801068 -0.428130 -1.947159 -29.845721 -7.125000 0.000000 0.000000 -71.952706 22.538466 -90.226804 -30.915948 42.996024 -14.392272 -0.418793 2.113345 -63.990749 7.125000 0.000000 0.000000 
-9.305056 17.127399 28.357722 89.252479 -85.981763 -98.617691 -10.997739 -6.936026 2.799533 1.819966 10.964795 32.883395 3.755651 -13.662493 1.649978 0.136800 -2.383800 -6.567500 -0.122674 -8.635228 -14.050182 -8.511441 -16.620047 55.222401 -0.898919 4.081025 -0.293277 -1.988800 8.842700 -25.304500 0.062478 -5.657922 -3.071750 3.740919 -2.397994 -9.280729 2.051541 -11.535600 3.820829 -3.294000 -5.986100 6.624800 65.967202 -17.165234 -70.978150 23.939802 -36.533494 -8.678241 -0.456874 -1.890903 -28.852610 -7.125000 0.000000 0.000000 -71.184073 22.379686 -89.838979 -31.496834 43.361523 -14.781054 -0.355048 2.133223 -63.499648 7.125000 0.000000 0.000000 
-9.383698 17.146016 28.239606 83.293164 -85.799332 -92.598275 -10.952386 -7.678874 3.505381 1.694971 10.859946 32.350866 3.730304 -13.226930 1.057303 0.127600 -2.302600 -6.342600 0.433864 -6.027470 -12.115637 -8.183365 -16.383975 54.333687 -0.797232 3.339956 -1.276842 -2.444600 9.736400 -28.127300 -0.095178 -5.503316 -3.195719 3.228453 -2.278534 -9.842056 2.012159 -12.633641 3.896746 -3.453100 -6.493500 6.604100 66.352964 -17.227943 -70.488663 23.954663 -36.556979 -8.673613 -0.453164 -1.885347 -28.277468 -7.125000 0.000000 0.000000 -70.530728 22.314028 -88.998626 -31.661999 43.441038 -14.866099 -0.303211 2.147253 -62.865672 7.125000 0.000000 0.000000 
